<?xml version="1.0" encoding="UTF-8"?>
<svg width="50px" height="50px" viewBox="0 0 50 50" version="1.1" xmlns="http://www.w3.org/2000/svg" xmlns:xlink="http://www.w3.org/1999/xlink">
    <title>icon/cart</title>
    <g id="icon/cart" stroke="none" stroke-width="1" fill="#003C8E" fill-rule="evenodd">
        <g id="noun-cart-1570216" transform="translate(5.000000, 8.000000)" fill="#222222" fill-rule="nonzero">
            <path d="M1.27181815,0 C0.569536232,0 0,0.570969772 0,1.2750702 C0,1.97914786 0.569218297,2.5501404 1.27181815,2.5501404 L6.34538925,2.5501404 C8.45019872,7.77663046 10.5232903,13.012683 12.6112189,18.2485078 L10.6903579,22.8835675 C10.5294976,23.2701488 10.5747429,23.7358405 10.8068662,24.0838836 C11.0392847,24.4319191 11.4514882,24.6515975 11.869301,24.6499231 L33.0650086,24.6499231 C33.7368368,24.6593006 34.3548431,24.0486011 34.3548431,23.3747439 C34.3548431,22.7011978 33.7368292,22.0901871 33.0650086,22.0996737 L13.7769147,22.0996737 L14.8762906,19.4701497 L35.290785,17.836715 C35.8251136,17.7946182 36.3088602,17.3772086 36.43013,16.8539828 L38.9737663,5.80403212 C39.1402434,5.05963277 38.4894141,4.24762836 37.7285941,4.24998103 L9.76312897,4.24998103 L8.38548368,0.796871443 C8.19682674,0.329358351 7.70951471,0 7.20654814,0 L1.27181815,0 Z M10.7833919,6.80012143 L36.1251313,6.80012143 L34.1513567,15.3797706 L14.8238994,16.9204646 L10.7833919,6.80012143 Z M16.1089648,25.5000379 C13.7827359,25.5000379 11.8698233,27.4178419 11.8698233,29.750019 C11.8698233,32.0821961 13.7827359,34 16.1089648,34 C18.4351938,34 20.3481064,32.0821961 20.3481064,29.750019 C20.3481064,27.4178419 18.4351938,25.5000379 16.1089648,25.5000379 Z M28.8263894,25.5000379 C26.5001605,25.5000379 24.5872479,27.4178419 24.5872479,29.750019 C24.5872479,32.0821961 26.5001605,34 28.8263894,34 C31.1526183,34 33.0655309,32.0821961 33.0655309,29.750019 C33.0655309,27.4178419 31.1526183,25.5000379 28.8263894,25.5000379 Z M16.1089648,28.0501783 C17.0605007,28.0501783 17.8044701,28.7960576 17.8044701,29.750019 C17.8044701,30.7039803 17.0604932,31.4498596 16.1089648,31.4498596 C15.1574365,31.4498596 14.4134596,30.7036844 14.4134596,29.750019 C14.4134596,28.79605 15.1577318,28.0501783 16.1089648,28.0501783 Z M28.8263894,28.0501783 C29.7779253,28.0501783 30.5218946,28.7963536 30.5218946,29.750019 C30.5218946,30.7039879 29.7776225,31.4498596 28.8263894,31.4498596 C27.8748535,31.4498596 27.1308842,30.7039803 27.1308842,29.750019 C27.1308842,28.7960576 27.8748611,28.0501783 28.8263894,28.0501783 Z" fill="#003C8E" id="Shape"></path>
        </g>
    </g>
</svg>
