<?xml version="1.0" encoding="UTF-8"?>
<svg width="50px" height="50px" viewBox="0 0 50 50" version="1.1" xmlns="http://www.w3.org/2000/svg" xmlns:xlink="http://www.w3.org/1999/xlink">
    <title>icon/login</title>
    <g id="icon/login" stroke="none" stroke-width="1" fill="#003C8E" fill-rule="evenodd">
        <g id="noun-user-4660151" transform="translate(9.000000, 9.000000)" fill="#222222" fill-rule="nonzero">
            <path d="M15.9996082,2.67565501 C12.2126463,2.67565501 9.14257726,5.6705539 9.14257726,9.36479255 C9.14257726,13.0590312 12.2126463,16.0539301 15.9996082,16.0539301 C19.78657,16.0539301 22.8566391,13.0590312 22.8566391,9.36479255 C22.8566391,5.6705539 19.78657,2.67565501 15.9996082,2.67565501 Z M6.3997649,9.36479255 C6.3997649,4.19267496 10.6976735,0 15.9996082,0 C21.3015428,0 25.5994514,4.19267496 25.5994514,9.36479255 C25.5994514,14.5369101 21.3015428,18.7295851 15.9996082,18.7295851 C10.6976735,18.7295851 6.3997649,14.5369101 6.3997649,9.36479255 Z" fill="#003C8E" id="Shape"></path>
            <path d="M2.81294999,30.324345 L29.18705,30.324345 C28.5007357,23.8105011 22.8586766,18.7295851 16.0003918,18.7295851 C9.14210707,18.7295851 3.49943674,23.8103482 2.81373365,30.324345 L2.81294999,30.324345 Z M0,31.6621725 C0,23.0419765 7.16344223,16.0539301 16,16.0539301 C24.8365578,16.0539301 32,23.0419765 32,31.6621725 C32,32.4009667 31.3859313,33 30.6285938,33 L1.37140618,33 C0.614068668,33 0,32.4009667 0,31.6621725 L0,31.6621725 Z" fill="#003C8E" id="Shape"></path>
        </g>
    </g>
</svg>
